<svg xmlns="http://www.w3.org/2000/svg" viewBox="0 0 1080 973" width="1080" height="973" shape-rendering="geometricPrecision">
  <path d="M 263 589 L 278 600 L 287 604 L 295 602 L 304 592 L 303 588 L 299 587 L 274 587 Z M 192 534 L 203 547 L 235 571 L 264 572 L 268 570 L 270 557 L 273 554 L 344 554 L 355 549 L 370 534 L 371 531 L 358 529 L 206 529 L 192 531 Z M 151 475 L 151 478 L 164 501 L 175 513 L 256 514 L 299 513 L 302 510 L 304 499 L 307 498 L 410 497 L 426 484 L 431 477 L 431 474 L 428 473 L 153 473 Z M 132 427 L 140 453 L 144 456 L 347 456 L 350 453 L 351 441 L 356 439 L 473 439 L 484 432 L 495 421 L 496 417 L 134 416 L 132 417 Z M 156 295 L 155 299 L 157 301 L 160 300 L 164 302 L 623 302 L 631 299 L 668 265 L 677 260 L 834 261 L 836 264 L 814 286 L 727 362 L 676 410 L 637 443 L 628 453 L 620 458 L 610 469 L 416 643 L 415 647 L 444 654 L 500 660 L 574 660 L 617 656 L 668 647 L 703 638 L 739 626 L 772 612 L 806 594 L 836 575 L 867 550 L 895 521 L 916 491 L 927 471 L 936 447 L 943 418 L 945 379 L 941 352 L 935 331 L 926 309 L 915 289 L 895 261 L 877 241 L 831 203 L 788 178 L 757 163 L 693 141 L 631 128 L 605 124 L 559 121 L 520 121 L 470 124 L 415 133 L 346 152 L 289 176 L 256 195 L 221 219 L 188 250 L 182 259 L 176 264 Z" fill="#005DAD" fill-rule="evenodd"/>
  <path d="M 904 944 L 906 946 L 913 945 L 914 931 L 932 929 L 941 925 L 943 922 L 943 914 L 937 909 L 928 907 L 904 908 Z M 913 914 L 916 911 L 928 911 L 933 916 L 933 921 L 925 926 L 916 926 L 913 922 Z M 836 908 L 836 934 L 838 939 L 844 944 L 856 947 L 864 947 L 878 943 L 884 936 L 885 909 L 883 907 L 876 908 L 875 935 L 871 941 L 866 943 L 854 943 L 847 938 L 845 927 L 846 910 L 843 907 Z M 706 909 L 707 945 L 716 945 L 716 932 L 719 929 L 733 929 L 738 933 L 740 944 L 742 946 L 749 946 L 750 944 L 747 932 L 742 929 L 742 924 L 747 922 L 750 917 L 746 910 L 735 907 L 708 907 Z M 716 914 L 719 911 L 733 911 L 738 915 L 738 921 L 733 925 L 719 925 L 716 922 Z M 543 908 L 543 944 L 545 946 L 549 946 L 552 943 L 551 916 L 555 913 L 559 917 L 577 945 L 593 945 L 594 909 L 592 907 L 585 908 L 585 935 L 581 938 L 560 908 Z M 476 943 L 477 946 L 482 946 L 490 937 L 513 937 L 520 946 L 527 945 L 510 909 L 507 907 L 498 907 L 494 909 L 489 921 Z M 499 915 L 505 915 L 511 930 L 510 932 L 494 933 L 492 930 Z M 411 908 L 411 935 L 413 939 L 419 944 L 437 947 L 448 945 L 456 941 L 460 934 L 460 908 L 452 907 L 450 909 L 450 935 L 446 941 L 441 943 L 429 943 L 423 939 L 420 930 L 421 910 L 420 908 Z M 349 907 L 349 910 L 366 933 L 366 944 L 368 946 L 376 945 L 376 933 L 393 907 L 386 907 L 373 925 L 371 925 L 368 922 L 359 908 Z M 282 908 L 282 945 L 290 946 L 291 944 L 292 913 L 297 915 L 309 935 L 318 946 L 329 946 L 333 944 L 332 908 L 325 907 L 324 909 L 324 937 L 322 939 L 317 934 L 299 908 Z M 216 943 L 223 946 L 229 937 L 250 936 L 260 946 L 266 946 L 267 944 L 249 908 L 236 907 L 233 909 Z M 240 914 L 244 916 L 250 928 L 250 931 L 248 933 L 234 933 L 231 930 L 236 922 L 237 917 Z M 191 908 L 190 913 L 191 945 L 198 946 L 200 944 L 201 910 L 198 907 Z M 132 908 L 133 911 L 147 911 L 150 914 L 150 945 L 159 945 L 159 914 L 162 911 L 177 910 L 176 907 Z M 767 916 L 765 920 L 765 933 L 767 937 L 776 944 L 789 947 L 800 946 L 811 942 L 817 936 L 819 930 L 819 923 L 814 913 L 808 909 L 797 906 L 786 906 L 772 911 Z M 784 910 L 799 910 L 806 916 L 808 920 L 807 935 L 803 940 L 798 943 L 783 942 L 776 935 L 776 918 Z M 638 917 L 636 929 L 638 936 L 644 942 L 651 945 L 663 947 L 680 946 L 688 944 L 687 927 L 668 930 L 674 930 L 678 932 L 679 937 L 676 943 L 658 943 L 650 938 L 646 929 L 648 918 L 655 911 L 661 909 L 669 909 L 676 912 L 680 917 L 689 915 L 683 909 L 671 906 L 658 906 L 647 909 Z M 622 853 L 607 854 L 599 866 L 581 868 L 581 878 L 594 879 L 610 877 L 617 863 L 623 855 Z M 674 852 L 673 855 L 680 872 L 685 877 L 718 876 L 717 866 L 702 866 L 696 863 L 689 852 Z M 581 834 L 581 845 L 585 846 L 639 846 L 641 849 L 641 877 L 643 878 L 657 878 L 659 876 L 658 850 L 661 845 L 719 844 L 719 833 L 661 833 L 658 830 L 640 831 L 635 834 Z M 881 801 L 867 801 L 865 803 L 851 842 L 847 845 L 835 846 L 836 857 L 853 857 L 862 854 L 865 850 L 868 839 L 871 834 L 874 822 L 881 805 Z M 354 798 L 355 812 L 389 812 L 392 815 L 382 864 L 378 867 L 355 867 L 354 881 L 356 883 L 392 883 L 397 882 L 402 877 L 409 845 L 412 821 L 415 813 L 438 813 L 440 816 L 439 863 L 440 876 L 443 880 L 449 882 L 492 881 L 492 866 L 466 866 L 463 865 L 460 861 L 460 816 L 463 812 L 493 811 L 492 797 Z M 904 768 L 889 768 L 888 774 L 886 776 L 838 776 L 835 779 L 835 790 L 837 791 L 885 791 L 888 794 L 888 842 L 884 845 L 875 846 L 876 857 L 899 857 L 905 853 L 905 816 L 907 791 L 914 790 L 914 777 L 906 775 L 906 770 Z M 357 747 L 358 763 L 490 762 L 489 746 Z M 808 745 L 809 879 L 935 879 L 941 871 L 940 744 Z M 827 761 L 920 760 L 923 763 L 923 861 L 920 865 L 828 865 L 826 863 L 825 764 Z M 582 761 L 581 771 L 589 775 L 590 825 L 609 825 L 612 821 L 717 821 L 717 811 L 674 811 L 671 807 L 671 804 L 674 801 L 719 801 L 719 790 L 675 790 L 671 787 L 671 783 L 675 780 L 717 781 L 719 780 L 719 770 L 674 769 L 671 766 L 671 764 L 674 761 L 719 761 L 719 749 L 673 749 L 670 744 L 649 744 L 649 747 L 644 750 L 624 750 L 618 743 L 603 744 L 592 760 Z M 609 804 L 611 802 L 649 803 L 650 808 L 646 811 L 612 811 L 610 810 Z M 609 784 L 611 782 L 647 782 L 649 783 L 650 788 L 648 790 L 612 791 L 609 788 Z M 609 764 L 611 762 L 649 763 L 650 767 L 647 770 L 610 769 Z M 267 744 L 133 744 L 133 759 L 135 760 L 184 759 L 187 762 L 187 792 L 186 794 L 132 796 L 133 811 L 179 811 L 181 813 L 181 816 L 151 856 L 145 862 L 132 863 L 131 877 L 133 879 L 154 879 L 161 877 L 177 859 L 194 836 L 199 831 L 202 831 L 235 874 L 239 877 L 247 879 L 268 879 L 268 863 L 255 862 L 248 857 L 218 814 L 221 811 L 267 810 L 266 795 L 214 795 L 212 794 L 210 789 L 211 762 L 214 759 L 267 759 Z" fill="#201F20" fill-rule="evenodd"/>
</svg>